# xmcd
#
# Track frame offsets:
#	150
#	22424
#	52611
#	74119
#	93926
#	106802
#	134304
#	165967
#	194775
#	222420
#
# Disc length: 3632 seconds
#
# Revision: 1
# Processed by: cddbd v1.4PL0 Copyright (c) Steve Scherf et al.
# Submitted via: audiograbber 1.81.02
#
DISCID=900e2e0a
DTITLE=Muddy Waters - Hoochie Coochie Man
DYEAR=1999
DGENRE=Blues
TTITLE0=Baby Please Don't Go
TTITLE1=Howling Wolf
TTITLE2=I Want You To Love Me
TTITLE3=Can't Get No Grindin'
TTITLE4=Hoochie Coochie Man
TTITLE5=Nine Below Zero
TTITLE6=The Blues Had A Baby
TTITLE7=They Call It Stormy Monday
TTITLE8=Hightway 41
TTITLE9=Kansas City
EXTD=Live in Montreal, January 1977
EXTT0=
EXTT1=
EXTT2=
EXTT3=
EXTT4=
EXTT5=
EXTT6=
EXTT7=
EXTT8=
EXTT9=
PLAYORDER=
